<svg xmlns="http://www.w3.org/2000/svg" width="5189.45px" height="3463.48px" preserveAspectRatio="none">
  <title>mural</title>
  <g id="Layer_2" data-name="Layer 2">
    <g id="back">
      <rect x="1.74" y="2" width="5184" height="3456" fill="#fff"/>
    </g>
    <g id="Layer_1-2" data-name="Layer 1">
      <polygon points="4794.47 2588.32 5186.83 2339.74 5184.83 2910.35 4801.47 3043.76 4794.47 2588.32" fill="#658e8a"/>
      <rect x="2052.65" y="570.16" width="783.63" height="383.96"/>
      <rect x="1920.51" y="947.13" width="1002.65" height="400" fill="#ffd900"/>
      <polygon points="2652.09 1738.09 1776.51 1738.09 1776.51 1347.13 2904.28 1337.13 2652.09 1738.09" fill="#018ccf"/>
      <polygon points="2648.09 1742.09 2901.28 1336.13 3305.31 2033.77 3054.99 2483.86 2648.09 1742.09" fill="#fd92b0"/>
      <polyline points="1800.85 1738.62 2646.73 1738.09 3053.64 2479.86 2214.73 2511.43 1800.85 1738.62" fill="#fe012a"/>
      <polygon points="2005.22 2910.35 2214.19 2511.98 1788.49 1716.35 1558.71 2125.31 2005.22 2910.35" fill="#a6aea7"/>
      <polygon points="2216.19 2509.98 3058.99 2479.86 2856.6 2879.55 2005.22 2910.35 2216.19 2509.98"/>
      <rect x="3157.76" y="472.98" width="408.56" height="890.79"/>
      <rect x="4242.78" y="2" width="366.14" height="3457.02" fill="#018ccf"/>
      <rect x="4608.92" y="2" width="196.46" height="3457.02" transform="translate(9414.31 3461.02) rotate(180)" fill="#e8b900"/>
      <rect x="4121.9" y="2" width="120.89" height="3457.02" transform="translate(8364.68 3461.02) rotate(180)"/>
      <rect x="3888.82" y="199.41" width="353.97" height="3258.59"/>
      <polygon points="2822.86 3.75 3924.64 3.75 4230.23 606.93 3221.39 606.93 2822.86 3.75" fill="#123e91"/>
      <polygon points="4306.11 2467.08 5184.92 1859.91 5184.92 2340.49 4306.11 2923.13 4306.11 2467.08" fill="#cf0028"/>
      <polygon points="4438.41 3309.84 2528.99 5.3 2955.8 3.05 4759.49 3124.46 4438.41 3309.84" fill="#93bcb0"/>
      <polygon points="917.39 3269.25 2658.52 224.77 2257.68 196.11 469.23 3296.02 917.39 3269.25" fill="#ff1b01"/>
      <polygon points="2665.62 199.41 1.74 199.41 1.74 2 2773.95 2 2665.62 199.41" fill="#00935b"/>
      <polygon points="3924.64 3.75 4560.92 3.75 4230.23 606.93 3924.64 3.75" fill="#f01b00"/>
      <polygon points="700.7 570.16 2 570.16 0 971.95 232.18 1382.26 700.7 570.16"/>
      <polygon points="1 971.95 1.74 1741.92 232.18 1382.26 1 971.95" fill="#f50031"/>
      <polygon points="2.97 2474.4 432.02 1738.09 902.49 2548.14 472.23 3290.77 2.97 2474.4" fill="#123e91"/>
      <polygon points="2.74 2485.86 1276.57 281.18 850.37 277.88 1.74 1741.92 2.74 2485.86" fill="#fd92b0"/>
      <polygon points="1.74 2470 469.23 3284.77 1.74 3309.84 1.74 2470" fill="#ea002d"/>
      <polygon points="1.74 3309.84 469.23 3284.77 222.49 3458.48 1.74 3458 1.74 3309.84" fill="#fd92b0"/>
      <polygon points="217.49 3458.48 469.23 3284.77 840.37 3458.48 217.49 3458.48" fill="#123e91"/>
      <polygon points="3778.77 2857.38 3888.82 3048.11 3888.82 3458 3719.32 3458 3778.77 2857.38" fill="#f6a700"/>
      <polyline points="469.23 3284.77 917.39 3269.25 1439.56 3458 840.37 3463.48 469.23 3284.77" fill="#f50031"/>
      <polygon points="1098.23 2941.07 3613.2 2849 3536.18 3098.46 1824.93 3175.48 1098.23 2941.07" fill="#ff0092"/>
      <polygon points="3537.4 3093.46 3613.43 2849 3755.08 3106.86 3721.01 3440.65 3537.4 3093.46"/>
      <polygon points="1824.93 3175.48 1098.23 2941.07 917.39 3269.25 1439.56 3458 1687.62 3458 1824.93 3175.48"/>
      <polygon points="1687.62 3458.4 1824.93 3175.88 3537.4 3093.86 3730.41 3458.4 1687.62 3458.4" fill="#f6a700"/>
      <rect x="1.74" y="199.41" width="2661.35" height="370.75" fill="#fe9600"/>
      <polygon points="4088.72 3394.59 2245.24 199.41 2671.44 196.11 4459.88 3296.02 4088.72 3394.59" fill="#fe0040"/>
      <polygon points="4798.39 375.79 5039.11 574.16 5185.74 438.61 5185.74 0 5135.8 0 4798.39 375.79" fill="#658e8a"/>
      <polygon points="5039.11 574.16 5039.11 1488.58 5185.74 1384.77 5185.74 438.61 5039.11 574.16" fill="#e56a02"/>
      <polygon points="4798.39 375.79 5039.11 574.16 5039.11 1488.58 4805.39 1253.26 4798.39 375.79"/>
      <polygon points="5039.11 1488.58 5185.74 1384.77 5185.74 1619.39 5039.11 1488.58" fill="#123e91"/>
      <polygon points="432.02 1738.09 871.63 1738.09 1124.04 2161.04 675.84 2161.04 432.02 1738.09" fill="#00aff4"/>
      <polygon points="871.63 1738.09 1124.04 1347.13 1352.11 1765.73 1124.04 2161.04 871.63 1738.09"/>
      <polygon points="432.02 1738.09 658.48 1347.13 1124.04 1347.13 871.63 1738.09 432.02 1738.09" fill="#abc04d"/>
      <polygon points="880.76 960.22 1320.37 960.22 1572.79 1383.17 1121.58 1347.13 880.76 960.22" fill="#00aff4"/>
      <polygon points="1320.37 960.22 1572.79 569.26 1800.85 987.86 1572.79 1383.17 1320.37 960.22"/>
      <polygon points="880.76 960.22 1110.22 569.26 1572.79 569.26 1320.37 960.22 880.76 960.22" fill="#abc04d"/>
      <polygon points="219.72 572.23 0.74 909.44 0.74 958.56 457.44 958.56 219.72 572.23" fill="#fff"/>
      <polygon points="490.19 202.12 921.21 202.12 1112.61 570.66 681.59 570.66 490.19 202.12" fill="#ef8fad"/>
      <polygon points="3787.34 2784.79 4720.55 2990.18 4684.83 3459.02 3720.36 3459.02 3787.34 2784.79" fill="#f9aa00"/>
      <polygon points="4720.55 2990.18 4684.83 3459.02 5185.74 3458 5189.45 2963.39 4720.55 2990.18"/>
      <polygon points="3787.34 2784.79 4684.83 2766.93 5184.92 2860.69 5183.45 2963.39 4720.55 2990.18 3787.34 2784.79" fill="#00945d"/>
    </g>
  </g>
</svg>
